# xmcd
#
# Track frame offsets:
#       182
#       18180
#       30367
#       46525
#       54325
#       70605
#       85665
#       103532
#       116082
#       131425
#       144432
#       154410
#       168162
#       178450
#
# Disc length: 2611 seconds
#
# Revision: 1
# Processed by: cddbd v1.5.1PL0 Copyright (c) Steve Scherf et al.
# Submitted via: MusiCat 1.1
#
DISCID=a80a310e
DTITLE=Fischer-Z - The Gold Collection
DYEAR=1900
DGENRE=
TTITLE0=Pretty Paracetamol
TTITLE1=Acrobats
TTITLE2=The Worker
TTITLE3=Spiders
TTITLE4=Remember Russia
TTITLE5=The Franch Lether
TTITLE6=Lies
TTITLE7=Waxdolls
TTITLE8=Headlines
TTITLE9=Nice to know
TTITLE10=Billy and his motorway police
TTITLE11=Lemmings
TTITLE12=Limbo
TTITLE13=Marliese
EXTD=\n\n
EXTT0=
EXTT1=
EXTT2=
EXTT3=
EXTT4=
EXTT5=
EXTT6=
EXTT7=
EXTT8=
EXTT9=
EXTT10=
EXTT11=
EXTT12=
EXTT13=
PLAYORDER=
